# xmcd
#
# Track frame offsets: 
#        150
#        18556
#        32793
#        51900
#        62079
#        72315
#        88849
#        97698
#        113943
#        124353
#        140083
#        153503
#        172585
#        186168
#        200347
#
# Disc length: 2801 seconds
#
# Revision: 1
# Processed by: cddbd v1.5.2PL0 Copyright (c) Steve Scherf et al.
# Submitted via: ExactAudioCopy v1.0b3
#
DISCID=d20aef0f
DTITLE=Kris Kristofferson - An Evening With Kris Kristofferson (The Pi
DTITLE=lgrim, Ch 77 Union Chapel London [CD1]
DYEAR=2014
DGENRE=Country
TTITLE0=Shipwrecked In The 80´s
TTITLE1=Darby´s Castle
TTITLE2=Me and Bobby McGee
TTITLE3=Here Comes That Rainbow
TTITLE4=Closer To The Bone
TTITLE5=Best Of All Possible Worlds
TTITLE6=Help Me Make ItTthrough The Night
TTITLE7=Casey´s Last Ride
TTITLE8=Nobody Wins
TTITLE9=Feeling Mortal
TTITLE10=From Here To Forever
TTITLE11=The Circle
TTITLE12=Loving Her Was Easier
TTITLE13=Kiss The World Goodbye
TTITLE14=I´d Rather Be Sorry
EXTD=YEAR: 2014
EXTT0=
EXTT1=
EXTT2=
EXTT3=
EXTT4=
EXTT5=
EXTT6=
EXTT7=
EXTT8=
EXTT9=
EXTT10=
EXTT11=
EXTT12=
EXTT13=
EXTT14=
PLAYORDER=
